HIERARCHY
ROOT newVegas:Hips
{
	OFFSET 0.000000 96.479958 0.000000
	CHANNELS 6 Xposition Yposition Zposition Xrotation Yrotation Zrotation
	JOINT newVegas:Pelvis
	{
		OFFSET 0.000000 0.000000 0.000000
		CHANNELS 3 Xrotation Yrotation Zrotation
		JOINT newVegas:LeftUpLeg
		{
			OFFSET 18.735201 -5.666702 -4.541200
			CHANNELS 3 Xrotation Yrotation Zrotation
			JOINT newVegas:LeftLeg
			{
				OFFSET -0.021200 -31.938179 0.493100
				CHANNELS 3 Xrotation Yrotation Zrotation
				JOINT newVegas:LeftFoot
				{
					OFFSET 0.021200 -31.938179 -4.336299
					CHANNELS 3 Xrotation Yrotation Zrotation
					JOINT newVegas:LeftToeBase
					{
						OFFSET 0.943001 -26.722000 15.023500
						CHANNELS 3 Xrotation Yrotation Zrotation
						End Site
						{
							OFFSET 0.000000 30.670183 0.000000
						}
					}
				}
				JOINT newVegas:Left_PantLeg
				{
					OFFSET 0.663870 -9.044666 -1.108900
					CHANNELS 3 Xrotation Yrotation Zrotation
					End Site
					{
						OFFSET 1.415995 20.635357 0.000000
					}
				}
			}
		}
		JOINT newVegas:RightUpLeg
		{
			OFFSET -18.735201 -5.666702 -4.541200
			CHANNELS 3 Xrotation Yrotation Zrotation
			JOINT newVegas:RightLeg
			{
				OFFSET 0.018946 -31.938133 0.493100
				CHANNELS 3 Xrotation Yrotation Zrotation
				JOINT newVegas:RightFoot
				{
					OFFSET -0.018946 -31.938126 -4.336299
					CHANNELS 3 Xrotation Yrotation Zrotation
					JOINT newVegas:RightToeBase
					{
						OFFSET -0.943001 -26.722004 15.023500
						CHANNELS 3 Xrotation Yrotation Zrotation
						End Site
						{
							OFFSET 0.000000 30.670187 0.000000
						}
					}
				}
				JOINT newVegas:Right_PantLeg
				{
					OFFSET -0.661674 -9.044716 -1.108900
					CHANNELS 3 Xrotation Yrotation Zrotation
					End Site
					{
						OFFSET -1.415958 20.635269 0.000000
					}
				}
			}
		}
	}
	JOINT newVegas:Spine
	{
		OFFSET 0.000000 10.199997 -0.299500
		CHANNELS 3 Xrotation Yrotation Zrotation
		JOINT newVegas:Spine1
		{
			OFFSET 0.000000 11.900002 -1.516600
			CHANNELS 3 Xrotation Yrotation Zrotation
			JOINT newVegas:Spine2
			{
				OFFSET 0.000000 13.600006 -2.842500
				CHANNELS 3 Xrotation Yrotation Zrotation
				JOINT newVegas:Neck
				{
					OFFSET 0.000000 9.624100 -2.890100
					CHANNELS 3 Xrotation Yrotation Zrotation
					JOINT newVegas:Head
					{
						OFFSET 0.000000 14.068802 -1.351900
						CHANNELS 3 Xrotation Yrotation Zrotation
						JOINT newVegas:Hair_Back
						{
							OFFSET 0.000000 3.231903 -17.524799
							CHANNELS 3 Xrotation Yrotation Zrotation
							End Site
							{
								OFFSET 0.000000 19.849884 0.000000
							}
						}
						JOINT newVegas:Hair_Front
						{
							OFFSET 0.000000 31.260406 4.573800
							CHANNELS 3 Xrotation Yrotation Zrotation
							JOINT newVegas:Hair_Front1
							{
								OFFSET 0.000000 2.284103 11.993300
								CHANNELS 3 Xrotation Yrotation Zrotation
								JOINT newVegas:Hair_Front2
								{
									OFFSET 0.000000 2.284103 11.993300
									CHANNELS 3 Xrotation Yrotation Zrotation
									End Site
									{
										OFFSET 0.000000 12.208862 0.000000
									}
								}
							}
						}
						JOINT newVegas:Jowel
						{
							OFFSET 0.000000 -7.458206 6.864100
							CHANNELS 3 Xrotation Yrotation Zrotation
							End Site
							{
								OFFSET 0.000000 19.849884 0.000000
							}
						}
					}
				}
				JOINT newVegas:LeftShoulder
				{
					OFFSET 15.263000 10.923401 -0.547700
					CHANNELS 3 Xrotation Yrotation Zrotation
					JOINT newVegas:LeftArm
					{
						OFFSET 25.438599 -2.830597 -13.032500
						CHANNELS 3 Xrotation Yrotation Zrotation
						JOINT newVegas:LeftForeArm
						{
							OFFSET 29.960503 0.000000 0.000000
							CHANNELS 3 Xrotation Yrotation Zrotation
							JOINT newVegas:LeftHand
							{
								OFFSET 27.849251 0.000000 0.000000
								CHANNELS 3 Xrotation Yrotation Zrotation
								JOINT newVegas:LeftHandThumb1
								{
									OFFSET 4.487587 -3.305161 6.305391
									CHANNELS 3 Xrotation Yrotation Zrotation
									JOINT newVegas:LeftHandThumb2
									{
										OFFSET 5.480453 -3.164139 3.164143
										CHANNELS 3 Xrotation Yrotation Zrotation
										JOINT newVegas:LeftHandThumb3
										{
											OFFSET 5.159721 -2.978973 2.978967
											CHANNELS 3 Xrotation Yrotation Zrotation
											End Site
											{
												OFFSET 2.494507 5.926697 1.738678
											}
										}
									}
								}
								JOINT newVegas:LeftHandIndex1
								{
									OFFSET 18.578728 -0.527832 5.208049
									CHANNELS 3 Xrotation Yrotation Zrotation
									JOINT newVegas:LeftHandIndex2
									{
										OFFSET 3.192009 0.000000 0.000000
										CHANNELS 3 Xrotation Yrotation Zrotation
										JOINT newVegas:LeftHandIndex3
										{
											OFFSET 3.835129 0.000000 0.000000
											CHANNELS 3 Xrotation Yrotation Zrotation
											End Site
											{
												OFFSET -0.034599 3.816971 0.371180
											}
										}
									}
								}
								JOINT newVegas:LeftHandMiddle1
								{
									OFFSET 18.476105 0.000000 0.000000
									CHANNELS 3 Xrotation Yrotation Zrotation
									JOINT newVegas:LeftHandMiddle2
									{
										OFFSET 3.324875 0.000000 0.000000
										CHANNELS 3 Xrotation Yrotation Zrotation
										JOINT newVegas:LeftHandMiddle3
										{
											OFFSET 4.596550 0.000000 0.000000
											CHANNELS 3 Xrotation Yrotation Zrotation
											End Site
											{
												OFFSET 0.057701 4.578827 0.399218
											}
										}
									}
								}
								JOINT newVegas:LeftHandRing1
								{
									OFFSET 17.732719 0.121887 -4.201567
									CHANNELS 3 Xrotation Yrotation Zrotation
									JOINT newVegas:LeftHandRing2
									{
										OFFSET 2.733170 0.000000 0.000000
										CHANNELS 3 Xrotation Yrotation Zrotation
										JOINT newVegas:LeftHandRing3
										{
											OFFSET 3.178268 0.000000 0.000000
											CHANNELS 3 Xrotation Yrotation Zrotation
											End Site
											{
												OFFSET 0.119102 3.170624 0.185394
											}
										}
									}
								}
								JOINT newVegas:LeftHandPinky1
								{
									OFFSET 15.989624 -0.606689 -7.535461
									CHANNELS 3 Xrotation Yrotation Zrotation
									JOINT newVegas:LeftHandPinky2
									{
										OFFSET 2.538986 0.000000 0.000000
										CHANNELS 3 Xrotation Yrotation Zrotation
										JOINT newVegas:LeftHandPinky3
										{
											OFFSET 2.593102 0.000000 0.000000
											CHANNELS 3 Xrotation Yrotation Zrotation
											End Site
											{
												OFFSET -0.150902 2.584198 0.152708
											}
										}
									}
								}
							}
							JOINT newVegas:Left_Sleeve
							{
								OFFSET 0.267448 -0.649796 0.577675
								CHANNELS 3 Xrotation Yrotation Zrotation
								End Site
								{
									OFFSET 0.000000 15.991241 0.000000
								}
							}
							JOINT newVegas:Left_CapeC
							{
								OFFSET 15.715958 -8.608795 -6.935905
								CHANNELS 3 Xrotation Yrotation Zrotation
								JOINT newVegas:Left_CapeC1
								{
									OFFSET 0.000000 -8.688499 0.000000
									CHANNELS 3 Xrotation Yrotation Zrotation
									End Site
									{
										OFFSET 0.000000 8.688499 0.000000
									}
								}
							}
						}
						JOINT newVegas:Left_CapeB
						{
							OFFSET 26.118385 -8.608795 -7.079235
							CHANNELS 3 Xrotation Yrotation Zrotation
							JOINT newVegas:Left_CapeB1
							{
								OFFSET 0.000000 -8.688499 0.000000
								CHANNELS 3 Xrotation Yrotation Zrotation
								End Site
								{
									OFFSET 0.000000 8.688499 0.000000
								}
							}
						}
						JOINT newVegas:Left_CapeA
						{
							OFFSET 5.115639 -8.608795 -10.395809
							CHANNELS 3 Xrotation Yrotation Zrotation
							JOINT newVegas:Left_CapeA1
							{
								OFFSET 0.000000 -8.688499 0.000000
								CHANNELS 3 Xrotation Yrotation Zrotation
								End Site
								{
									OFFSET 0.000000 8.688499 0.000000
								}
							}
						}
					}
				}
				JOINT newVegas:RightShoulder
				{
					OFFSET -15.263000 10.923401 -0.547700
					CHANNELS 3 Xrotation Yrotation Zrotation
					JOINT newVegas:RightArm
					{
						OFFSET -25.438599 -2.830597 -13.032500
						CHANNELS 3 Xrotation Yrotation Zrotation
						JOINT newVegas:RightForeArm
						{
							OFFSET -29.960503 0.000000 0.000000
							CHANNELS 3 Xrotation Yrotation Zrotation
							JOINT newVegas:RightHand
							{
								OFFSET -27.849251 0.000000 0.000000
								CHANNELS 3 Xrotation Yrotation Zrotation
								JOINT newVegas:RightHandThumb1
								{
									OFFSET -4.487587 -3.305161 6.305391
									CHANNELS 3 Xrotation Yrotation Zrotation
									JOINT newVegas:RightHandThumb2
									{
										OFFSET -5.480453 -3.164139 3.164143
										CHANNELS 3 Xrotation Yrotation Zrotation
										JOINT newVegas:RightHandThumb3
										{
											OFFSET -5.159721 -2.978973 2.978967
											CHANNELS 3 Xrotation Yrotation Zrotation
											End Site
											{
												OFFSET -2.494507 5.926697 1.738678
											}
										}
									}
								}
								JOINT newVegas:RightHandIndex1
								{
									OFFSET -18.578728 -0.527832 5.208049
									CHANNELS 3 Xrotation Yrotation Zrotation
									JOINT newVegas:RightHandIndex2
									{
										OFFSET -3.192009 0.000000 0.000000
										CHANNELS 3 Xrotation Yrotation Zrotation
										JOINT newVegas:RightHandIndex3
										{
											OFFSET -3.835129 0.000000 0.000000
											CHANNELS 3 Xrotation Yrotation Zrotation
											End Site
											{
												OFFSET 0.034599 3.816971 0.371180
											}
										}
									}
								}
								JOINT newVegas:RightHandMiddle1
								{
									OFFSET -18.476105 0.000000 0.000000
									CHANNELS 3 Xrotation Yrotation Zrotation
									JOINT newVegas:RightHandMiddle2
									{
										OFFSET -3.324875 0.000000 0.000000
										CHANNELS 3 Xrotation Yrotation Zrotation
										JOINT newVegas:RightHandMiddle3
										{
											OFFSET -4.596550 0.000000 0.000000
											CHANNELS 3 Xrotation Yrotation Zrotation
											End Site
											{
												OFFSET -0.057701 4.578827 0.399218
											}
										}
									}
								}
								JOINT newVegas:RightHandRing1
								{
									OFFSET -17.732719 0.121887 -4.201567
									CHANNELS 3 Xrotation Yrotation Zrotation
									JOINT newVegas:RightHandRing2
									{
										OFFSET -2.733170 0.000000 0.000000
										CHANNELS 3 Xrotation Yrotation Zrotation
										JOINT newVegas:RightHandRing3
										{
											OFFSET -3.178268 0.000000 0.000000
											CHANNELS 3 Xrotation Yrotation Zrotation
											End Site
											{
												OFFSET -0.119102 3.170624 0.185394
											}
										}
									}
								}
								JOINT newVegas:RightHandPinky1
								{
									OFFSET -15.989624 -0.606689 -7.535461
									CHANNELS 3 Xrotation Yrotation Zrotation
									JOINT newVegas:RightHandPinky2
									{
										OFFSET -2.538986 0.000000 0.000000
										CHANNELS 3 Xrotation Yrotation Zrotation
										JOINT newVegas:RightHandPinky3
										{
											OFFSET -2.593102 0.000000 0.000000
											CHANNELS 3 Xrotation Yrotation Zrotation
											End Site
											{
												OFFSET 0.150902 2.584198 0.152708
											}
										}
									}
								}
							}
							JOINT newVegas:Right_CapeC
							{
								OFFSET -15.715958 -8.608795 -6.935905
								CHANNELS 3 Xrotation Yrotation Zrotation
								JOINT newVegas:Right_CapeC1
								{
									OFFSET 0.000000 -8.688499 0.000000
									CHANNELS 3 Xrotation Yrotation Zrotation
									End Site
									{
										OFFSET 0.000000 8.688499 0.000000
									}
								}
							}
							JOINT newVegas:Right_Sleeve
							{
								OFFSET -0.267448 -0.649994 0.577675
								CHANNELS 3 Xrotation Yrotation Zrotation
								End Site
								{
									OFFSET 0.000000 15.991302 0.000000
								}
							}
						}
						JOINT newVegas:Right_CapeA
						{
							OFFSET -5.115540 -8.608795 -10.395824
							CHANNELS 3 Xrotation Yrotation Zrotation
							JOINT newVegas:Right_CapeA1
							{
								OFFSET 0.000000 -8.688499 0.000000
								CHANNELS 3 Xrotation Yrotation Zrotation
								End Site
								{
									OFFSET 0.000000 8.688499 0.000000
								}
							}
						}
						JOINT newVegas:Right_CapeB
						{
							OFFSET -26.118187 -8.608795 -7.079266
							CHANNELS 3 Xrotation Yrotation Zrotation
							JOINT newVegas:Right_CapeB1
							{
								OFFSET 0.000000 -8.688499 0.000000
								CHANNELS 3 Xrotation Yrotation Zrotation
								End Site
								{
									OFFSET 0.000000 8.688499 0.000000
								}
							}
						}
					}
				}
				JOINT newVegas:Left_Collar
				{
					OFFSET 18.625099 8.655502 8.828100
					CHANNELS 3 Xrotation Yrotation Zrotation
					JOINT newVegas:Left_Collar1
					{
						OFFSET 14.783401 10.540405 -1.259500
						CHANNELS 3 Xrotation Yrotation Zrotation
						End Site
						{
							OFFSET 0.000000 18.199875 0.000000
						}
					}
				}
				JOINT newVegas:Collar_Back
				{
					OFFSET 0.000000 15.630707 -20.132601
					CHANNELS 3 Xrotation Yrotation Zrotation
					End Site
					{
						OFFSET 0.000000 22.523010 0.000000
					}
				}
				JOINT newVegas:Left_Peck
				{
					OFFSET 17.239599 -5.132599 25.482599
					CHANNELS 3 Xrotation Yrotation Zrotation
					End Site
					{
						OFFSET 0.000000 22.523010 0.000000
					}
				}
				JOINT newVegas:Right_Peck
				{
					OFFSET -17.239599 -5.132202 25.482599
					CHANNELS 3 Xrotation Yrotation Zrotation
					End Site
					{
						OFFSET 0.000000 22.523010 0.000000
					}
				}
				JOINT newVegas:Right_Collar
				{
					OFFSET -18.625099 8.655792 8.828100
					CHANNELS 3 Xrotation Yrotation Zrotation
					JOINT newVegas:Right_Collar1
					{
						OFFSET -14.783401 10.539993 -1.259500
						CHANNELS 3 Xrotation Yrotation Zrotation
						End Site
						{
							OFFSET 0.000000 18.199631 0.000000
						}
					}
				}
			}
		}
		JOINT newVegas:Belly
		{
			OFFSET 0.000000 -6.540398 9.014299
			CHANNELS 3 Xrotation Yrotation Zrotation
			End Site
			{
				OFFSET 0.000000 11.566666 0.000000
			}
		}
	}
	JOINT newVegas:ElvisFacialAnim_Joint
	{
		OFFSET 1.000000 -95.330101 -8.825800
		CHANNELS 3 Xrotation Yrotation Zrotation
		End Site
		{
			OFFSET 0.000000 35.315800 0.000000
		}
	}
}
MOTION
Frames: 4
Frame Time: 0.033333
-15.663959 88.059441 80.184021 -1.585537 -26.370105 -366.745286 0.000000 -0.000001 -0.000000 15.099195 43.857048 2.094585 25.009738 -1.062085 -0.371809 37.203760 3.950125 10.378616 -0.000001 0.000000 0.000000 -0.000001 -0.000002 0.000003 -36.421659 1.298165 15.092860 28.391855 5.559434 0.048835 9.896028 3.327328 -1.623895 0.000000 0.000001 0.000000 -0.000000 0.000000 -0.000001 -4.050113 -13.989770 3.844950 8.446125 -3.835909 6.291450 8.268955 -3.735052 6.895774 -2.095300 3.359945 3.035134 -2.095294 3.359927 3.035140 -0.000000 -0.000001 -0.000002 -2.095226 3.359910 3.035141 -2.095361 3.359959 3.035134 0.000001 0.000001 0.000002 -0.000000 -0.000001 -0.000000 -17.093628 -11.996332 9.454934 -85.634173 -62.886788 -72.148326 0.322132 -64.403671 48.767421 8.654367 17.875817 -47.749675 -7.471930 1.860687 -7.166921 30.986997 27.310527 -4.510880 0.000001 -0.000000 -0.000003 -4.707374 11.366697 -75.214460 -0.816405 3.073985 -46.874615 -0.000001 -0.000001 -0.000003 1.623366 16.580921 -84.691306 0.017998 0.022021 -72.884860 -0.000000 -0.000000 -0.000003 -6.443146 23.132628 -76.210206 0.012874 0.975916 -51.002976 -0.000001 -0.000001 0.000003 -17.098962 22.128976 -43.123198 0.019715 0.026994 -78.662893 -0.000000 -0.000002 0.000001 -0.000002 0.000001 -0.000000 -0.000002 0.000001 -0.000000 -0.000002 0.000001 0.000000 0.000000 -0.000005 -0.000001 0.000000 -0.000005 -0.000002 0.000000 -0.000005 -0.000001 0.000001 -0.000004 -0.000000 -6.696852 0.916285 -16.037341 -62.446514 45.712410 35.077994 0.130125 96.126614 -29.720185 -36.390623 33.055117 -39.170223 9.347174 2.810549 -11.364510 16.169050 -43.266007 15.843561 -0.000000 -0.000000 -0.000000 17.076798 -0.396557 31.924352 -0.204388 -0.284208 112.811584 -0.000000 0.000002 -0.000000 9.205474 -5.035876 102.738094 0.014963 -0.019206 61.018513 -0.000001 0.000002 0.000002 5.569139 -8.935227 107.329094 0.547989 -0.005772 41.263714 0.000003 0.000001 -0.000000 6.511259 -17.148261 98.228010 0.007393 -0.015740 43.845744 -0.000000 0.000002 -0.000002 -0.000001 0.000000 0.000001 0.000000 0.000000 0.000001 -0.000001 0.000000 0.000001 0.000000 0.000001 0.000001 0.000000 0.000002 0.000001 0.000000 0.000001 0.000001 0.000000 0.000002 0.000001 -0.000000 -0.000003 0.000001 -0.000000 -0.000003 0.000001 -0.000000 -0.000003 0.000001 -0.000000 -0.000003 0.000001 -0.000000 -0.000003 0.000001 -0.000000 -0.000003 0.000001 -0.000000 -0.000003 0.000001 -0.000000 -0.000000 -0.000000 0.000000 -0.000001 -0.000000 
-14.265466 87.516876 83.827492 -1.556901 -33.078746 -367.770443 -0.000000 0.000002 -0.000000 10.974753 47.871607 4.729424 27.947317 -3.164400 1.259460 42.476472 5.130415 11.946509 -0.000000 -0.000001 -0.000000 0.000002 -0.000002 0.000001 -38.376384 4.489758 16.046771 32.641870 6.671070 1.236450 6.403021 3.488643 -0.766735 -0.000000 -0.000001 -0.000000 -0.000000 0.000002 -0.000001 -4.139167 -13.701521 6.609388 8.813690 -3.190019 6.836183 8.649368 -3.067097 7.247511 -1.453761 3.883133 1.931391 -1.453763 3.883141 1.931389 -0.000000 0.000003 0.000001 -1.453839 3.883137 1.931390 -1.453616 3.883126 1.931376 -0.000000 -0.000002 -0.000002 -0.000000 0.000003 0.000001 -19.458302 -7.655437 7.006776 -97.050363 -45.669653 -74.642636 0.052399 -72.349633 30.745226 26.693614 15.415991 -53.883547 -7.471931 1.860687 -7.166926 30.986997 27.310528 -4.510877 0.000002 -0.000004 -0.000006 -4.707377 11.366701 -75.214460 -0.816404 3.073987 -46.874612 0.000000 -0.000002 0.000001 1.623365 16.580925 -84.691320 0.017999 0.022019 -72.884853 0.000000 -0.000001 0.000002 -6.443148 23.132632 -76.210213 0.012871 0.975916 -51.002969 0.000000 0.000001 0.000002 -17.098969 22.128976 -43.123202 0.019719 0.026990 -78.662893 0.000000 -0.000005 -0.000000 -0.000002 -0.000000 -0.000001 -0.000002 -0.000000 -0.000001 -0.000003 -0.000000 -0.000001 0.000002 -0.000002 -0.000000 0.000002 -0.000002 -0.000003 0.000002 -0.000002 -0.000000 0.000002 -0.000003 0.000000 -1.823573 10.086157 -24.345637 -59.459194 44.504130 29.286946 0.005600 97.883605 -38.837654 -28.340676 39.961374 -42.309631 9.347176 2.810545 -11.364514 16.169045 -43.266007 15.843570 -0.000000 -0.000002 -0.000001 17.076801 -0.396554 31.924352 -0.204385 -0.284210 112.811578 -0.000003 0.000000 -0.000000 9.205473 -5.035878 102.738094 0.014964 -0.019211 61.018513 -0.000002 -0.000001 -0.000000 5.569142 -8.935223 107.329094 0.547990 -0.005772 41.263717 0.000001 0.000001 0.000001 6.511261 -17.148264 98.228010 0.007393 -0.015740 43.845740 0.000001 0.000002 0.000000 0.000000 0.000003 0.000001 0.000001 -0.000001 0.000000 0.000000 0.000002 0.000002 0.000000 0.000001 0.000002 0.000000 0.000002 0.000002 0.000000 0.000001 0.000002 0.000000 0.000002 0.000002 0.000001 0.000001 -0.000001 0.000001 0.000001 -0.000001 0.000001 0.000001 -0.000001 0.000001 0.000001 -0.000001 0.000001 0.000001 -0.000001 0.000001 0.000001 -0.000001 0.000001 0.000001 -0.000001 -0.000000 0.000001 0.000000 -0.000000 0.000002 -0.000000 
-13.004617 87.192963 86.789360 -2.238270 -37.547500 -368.457314 -0.000000 -0.000001 0.000000 5.311345 49.133055 9.954416 34.316605 -2.585316 2.304960 40.800726 5.151307 11.790796 0.000000 0.000001 0.000000 0.000000 0.000000 -0.000000 -39.008522 6.133836 16.026230 35.700644 9.603972 1.272327 3.772953 3.754532 -0.084918 -0.000000 -0.000000 -0.000000 -0.000000 0.000000 -0.000000 -2.842237 -14.605572 6.544541 9.209652 -2.952967 7.203293 9.072924 -2.839404 7.489415 -1.180772 4.279948 1.396830 -1.180758 4.279926 1.396826 -0.000000 0.000000 -0.000000 -1.180778 4.279927 1.396829 -1.180761 4.279966 1.396832 -0.000000 -0.000001 -0.000003 -0.000000 0.000000 -0.000000 -22.667390 -1.017074 8.031762 -100.835620 -34.899917 -72.786369 0.005891 -73.765476 15.874480 27.892010 15.620651 -53.771521 -7.471933 1.860685 -7.166927 30.986997 27.310530 -4.510878 -0.000000 -0.000002 -0.000003 -4.707374 11.366700 -75.214460 -0.816404 3.073986 -46.874615 0.000000 0.000003 0.000001 1.623366 16.580921 -84.691320 0.017999 0.022019 -72.884860 -0.000000 -0.000000 0.000000 -6.443143 23.132630 -76.210213 0.012872 0.975916 -51.002969 0.000001 -0.000001 0.000001 -17.098964 22.128980 -43.123205 0.019717 0.026991 -78.662899 0.000000 -0.000007 0.000000 0.000000 -0.000000 -0.000000 0.000000 -0.000000 -0.000000 -0.000001 -0.000000 0.000000 0.000001 -0.000004 -0.000001 0.000002 -0.000004 -0.000002 0.000001 -0.000004 -0.000001 0.000001 -0.000004 -0.000000 6.771969 17.874344 -31.363518 -58.825913 43.081883 23.320055 0.106942 100.495299 -46.034273 -21.727359 41.189090 -43.036469 9.347170 2.810547 -11.364512 16.169054 -43.266001 15.843563 0.000002 0.000000 0.000001 17.076795 -0.396555 31.924352 -0.204384 -0.284211 112.811584 -0.000002 0.000001 -0.000003 9.205468 -5.035881 102.738094 0.014962 -0.019202 61.018513 0.000001 0.000001 0.000000 5.569136 -8.935225 107.329094 0.547992 -0.005770 41.263714 -0.000001 -0.000001 -0.000004 6.511253 -17.148259 98.228017 0.007395 -0.015741 43.845744 0.000001 0.000002 -0.000003 -0.000004 0.000001 -0.000000 0.000002 -0.000000 -0.000000 -0.000004 0.000001 -0.000000 0.000001 0.000001 -0.000002 0.000001 0.000002 -0.000000 0.000001 0.000001 -0.000002 0.000001 0.000002 0.000000 0.000000 0.000003 0.000000 0.000000 0.000003 0.000000 0.000000 0.000003 0.000000 0.000000 0.000003 0.000000 0.000000 0.000003 0.000000 0.000000 0.000003 0.000000 0.000000 0.000003 0.000000 -0.000000 -0.000004 -0.000001 -0.000000 -0.000001 0.000000 
-11.721104 87.081284 88.956779 -3.399030 -39.985054 -368.766476 -0.000000 -0.000000 -0.000000 -0.600960 46.380461 15.892971 41.612217 1.950756 2.938392 36.229594 4.666551 10.494871 -0.000001 0.000001 -0.000000 -0.000002 0.000001 -0.000000 -39.013808 7.462548 15.041712 38.319082 11.657197 0.876727 1.453344 3.839784 0.907977 0.000000 0.000000 0.000000 -0.000000 0.000000 -0.000001 -0.550510 -14.914510 4.559580 9.210815 -2.701327 7.098701 9.114853 -2.609643 7.291097 -1.064379 4.523761 1.461061 -1.064375 4.523779 1.461044 0.000002 -0.000001 -0.000002 -1.064381 4.523818 1.461046 -1.064388 4.523774 1.461063 -0.000001 0.000001 0.000001 0.000002 -0.000001 -0.000001 -28.186604 4.370882 13.480295 -98.782915 -25.630690 -69.977672 0.063516 -74.967685 1.484864 20.960374 18.563908 -45.413378 -7.471936 1.860685 -7.166923 30.986997 27.310527 -4.510877 -0.000001 0.000000 -0.000001 -4.707375 11.366700 -75.214460 -0.816405 3.073985 -46.874612 -0.000000 -0.000002 0.000000 1.623367 16.580921 -84.691313 0.018000 0.022021 -72.884860 -0.000001 0.000000 -0.000001 -6.443148 23.132630 -76.210213 0.012873 0.975916 -51.002969 -0.000001 0.000001 0.000000 -17.098962 22.128973 -43.123205 0.019716 0.026988 -78.662893 -0.000000 -0.000005 0.000001 -0.000003 -0.000001 0.000001 -0.000003 -0.000001 0.000001 -0.000004 -0.000001 0.000001 -0.000001 -0.000003 0.000002 -0.000001 -0.000004 -0.000001 -0.000001 -0.000003 0.000002 -0.000001 -0.000003 0.000002 16.902367 18.123902 -37.548016 -67.174924 41.514897 26.081810 0.029329 106.939159 -51.192312 -15.046333 38.730362 -36.362384 9.347173 2.810548 -11.364508 16.169052 -43.266004 15.843570 0.000001 -0.000001 -0.000002 17.076798 -0.396554 31.924352 -0.204390 -0.284211 112.811584 -0.000000 0.000003 -0.000001 9.205475 -5.035881 102.738094 0.014967 -0.019207 61.018519 -0.000001 0.000003 0.000001 5.569139 -8.935226 107.329094 0.547989 -0.005769 41.263717 -0.000001 -0.000001 0.000001 6.511259 -17.148261 98.228010 0.007398 -0.015738 43.845744 -0.000000 -0.000000 -0.000003 0.000003 -0.000000 -0.000002 0.000003 -0.000002 -0.000003 0.000003 -0.000000 -0.000002 -0.000001 -0.000003 -0.000002 -0.000001 -0.000002 -0.000000 -0.000001 -0.000003 -0.000002 -0.000001 -0.000002 -0.000000 -0.000001 0.000000 -0.000001 -0.000001 0.000000 -0.000001 -0.000001 0.000000 -0.000001 -0.000001 0.000000 -0.000001 -0.000001 0.000000 -0.000001 -0.000001 0.000000 -0.000001 -0.000001 0.000000 -0.000001 0.000000 -0.000001 -0.000000 -0.000000 -0.000000 -0.000000 
